<svg width="43" height="43" viewBox="0 0 43 43" fill="none" xmlns="http://www.w3.org/2000/svg">
<g filter="url(#filter0_b_23_782)">
<circle cx="21.3714" cy="21.3714" r="21.3714" fill="black" fill-opacity="0.3"/>
<circle cx="21.3714" cy="21.3714" r="20.8714" stroke="white"/>
</g>
<path d="M33.935 21.0625V21.0125C33.9102 13.9418 28.2705 8.17139 21.3679 8.17139C14.4653 8.17139 8.80078 13.9418 8.80078 21.0625C8.80078 28.184 14.4397 33.9428 21.3679 33.9428C24.547 33.945 27.6046 32.7093 29.9044 30.4927C30.1309 30.2837 30.266 29.9924 30.2798 29.6829C30.2936 29.3733 30.1852 29.0709 29.9782 28.8422C29.7713 28.6134 29.4828 28.477 29.1763 28.4631C28.8698 28.4491 28.5703 28.5587 28.3438 28.7676L28.3191 28.7926C27.3267 29.7453 26.154 30.4857 24.8713 30.9692C23.5886 31.4528 22.2223 31.6696 20.8546 31.6067C19.4868 31.5438 18.1457 31.2024 16.9119 30.603C15.678 30.0037 14.5768 29.1587 13.6744 28.1189L19.0429 19.4249V23.4479C19.0429 25.3702 19.7852 25.9958 20.4091 26.1707C21.033 26.3456 21.9688 26.2189 22.9824 24.5956L25.9278 19.7658C26.0064 19.6248 26.0974 19.4909 26.1982 19.3651V21.8148C26.1982 23.613 26.9157 25.0623 28.152 25.7611C28.7227 26.0749 29.367 26.2267 30.0162 26.2005C30.6655 26.1742 31.2957 25.9709 31.8397 25.612C33.2678 24.6759 34.0348 23.0365 33.935 21.0625ZM30.6688 23.5925C30.4705 23.7304 30.2393 23.8124 29.9991 23.8298C29.7589 23.8472 29.5184 23.7995 29.3026 23.6915C28.8077 23.3926 28.5099 22.7188 28.5099 21.7942V18.9626C28.5099 17.615 27.9903 16.6396 27.1004 16.3915C25.5902 15.931 24.4538 17.8149 24.0322 18.5146L21.3679 22.8357V17.5151C21.3431 16.2916 20.9464 15.5669 20.204 15.3411C19.7092 15.1921 18.9669 15.2679 18.2502 16.3674L12.2879 26.0101C11.4947 24.4837 11.079 22.7862 11.0763 21.0625C11.0763 15.2412 15.7016 10.5194 21.3679 10.5194C27.0342 10.5194 31.6594 15.2412 31.6594 21.0625V21.1133C31.7187 22.236 31.3616 23.1373 30.6697 23.5853L30.6688 23.5925Z" fill="white"/>
<defs>
<filter id="filter0_b_23_782" x="-30" y="-30" width="102.742" height="102.743" filterUnits="userSpaceOnUse" color-interpolation-filters="sRGB">
<feFlood flood-opacity="0" result="BackgroundImageFix"/>
<feGaussianBlur in="BackgroundImageFix" stdDeviation="15"/>
<feComposite in2="SourceAlpha" operator="in" result="effect1_backgroundBlur_23_782"/>
<feBlend mode="normal" in="SourceGraphic" in2="effect1_backgroundBlur_23_782" result="shape"/>
</filter>
</defs>
</svg>
